<svg width="108" height="53" viewBox="0 0 108 53" fill="none" xmlns="http://www.w3.org/2000/svg">
<path d="M6.15 4.38L10.05 18.99L14.85 4.38H19.53L24.33 18.99L28.23 4.38H34.38L27.63 27H21.63L17.19 13.89L12.75 27H6.75L0 4.38H6.15ZM51.4345 9.36H44.4445V13.14H51.0445V18.12H44.4445V22.02H51.4345V27H38.5645V4.38H51.4345V9.36ZM63.3539 22.44H64.6439C66.1239 22.44 67.1839 22.25 67.8239 21.87C68.4639 21.49 68.7839 20.88 68.7839 20.04C68.7839 19.2 68.4639 18.59 67.8239 18.21C67.1839 17.83 66.1239 17.64 64.6439 17.64H63.3539V22.44ZM63.3539 13.26H64.4339C66.2739 13.26 67.1939 12.53 67.1939 11.07C67.1939 9.61 66.2739 8.88 64.4339 8.88H63.3539V13.26ZM57.4739 4.38H66.2339C68.3139 4.38 69.8939 4.88 70.9739 5.88C72.0539 6.88 72.5939 8.32 72.5939 10.2C72.5939 11.34 72.3839 12.29 71.9639 13.05C71.5639 13.79 70.9439 14.42 70.1039 14.94C70.9439 15.1 71.6539 15.35 72.2339 15.69C72.8339 16.01 73.3139 16.41 73.6739 16.89C74.0539 17.37 74.3239 17.91 74.4839 18.51C74.6439 19.11 74.7239 19.75 74.7239 20.43C74.7239 21.49 74.5339 22.43 74.1539 23.25C73.7939 24.07 73.2739 24.76 72.5939 25.32C71.9339 25.88 71.1239 26.3 70.1639 26.58C69.2039 26.86 68.1239 27 66.9239 27H57.4739V4.38ZM90.1854 2.28C89.9754 6.24 90.3954 19.86 78.4254 26.49C79.6254 27.33 80.7954 28.41 81.4254 29.34C87.7554 25.47 90.9054 19.68 92.5254 14.28C94.2054 19.8 97.5654 25.98 104.345 29.34C104.915 28.38 105.995 27.15 107.105 26.31C95.9154 21.06 94.4154 8.13 94.1754 3.99C94.2054 3.36 94.2354 2.76 94.2654 2.28H90.1854Z" fill="#333333"/>
<path d="M2.008 42.826H9.498V44.618H2.008V42.826ZM28.4478 39.774C28.2098 39.858 27.8738 39.928 27.2858 39.928H24.8498V38.85C24.8498 38.458 24.8778 38.164 24.9478 37.562H22.7918C22.8898 38.164 22.9038 38.458 22.9038 38.85V39.928H19.9078C19.3758 39.928 18.9698 39.914 18.4798 39.858C18.5358 40.194 18.5498 40.754 18.5498 41.062V43.484C18.5498 43.862 18.5218 44.31 18.4798 44.66H20.4118C20.3838 44.38 20.3698 43.946 20.3698 43.624V41.58H27.3138C27.1458 42.826 26.7818 44.156 26.0678 45.178C25.2838 46.312 24.0518 47.138 22.8898 47.572C22.3158 47.796 21.5458 48.006 20.9158 48.118L22.3718 49.798C24.8638 49.154 26.9638 47.67 28.0838 45.598C28.7698 44.324 29.1478 42.98 29.3858 41.636C29.4418 41.356 29.5538 40.824 29.6658 40.516L28.4478 39.774ZM39.6618 47.628V43.12H42.0558C42.3638 43.12 42.7978 43.148 43.1478 43.176V41.412C42.8118 41.454 42.3918 41.482 42.0558 41.482H35.6438C35.3358 41.482 34.8458 41.468 34.5378 41.412V43.176C34.8458 43.148 35.3498 43.12 35.6438 43.12H37.8278V47.628H34.9718C34.6218 47.628 34.1878 47.586 33.8238 47.544V49.378C34.2018 49.322 34.6358 49.308 34.9718 49.308H42.6998C42.9518 49.308 43.4698 49.322 43.7638 49.378V47.544C43.4838 47.572 43.0918 47.628 42.6998 47.628H39.6618ZM58.3238 39.046C58.0718 38.542 57.6098 37.73 57.2458 37.198L56.0978 37.674C56.3638 38.08 56.6438 38.57 56.8818 39.032C56.6298 39.06 56.3918 39.06 56.2238 39.06H49.7418C49.2798 39.06 48.4818 39.004 48.0758 38.948V40.922C48.4398 40.894 49.0978 40.866 49.7418 40.866H56.2658C56.0698 42.07 55.5378 43.652 54.6138 44.814C53.4798 46.242 51.9118 47.446 49.1258 48.104L50.6518 49.77C53.1578 48.972 55.0198 47.586 56.2798 45.906C57.4558 44.352 58.0578 42.182 58.3798 40.81C58.4638 40.516 58.5618 40.11 58.6878 39.844L57.8058 39.27L58.3238 39.046ZM58.0438 37.324C58.4218 37.828 58.8558 38.626 59.1638 39.2L60.3258 38.696C60.0598 38.206 59.5558 37.352 59.2058 36.848L58.0438 37.324ZM71.6658 38.248L70.5038 38.738C71.0078 39.452 71.3298 40.054 71.7358 40.936L72.9538 40.418C72.6318 39.774 72.0718 38.836 71.6658 38.248ZM73.5978 37.576L72.4078 38.066C72.9258 38.766 73.2758 39.312 73.7238 40.194L74.9138 39.662C74.5778 39.046 74.0318 38.136 73.5978 37.576ZM65.5898 37.982L64.5818 39.522C65.5058 40.04 66.9618 40.978 67.7458 41.524L68.7818 39.984C68.0538 39.48 66.5138 38.486 65.5898 37.982ZM62.9998 47.922L64.0498 49.756C65.2818 49.532 67.2978 48.832 68.7258 48.034C71.0078 46.704 72.9958 44.94 74.2838 42.994L73.2058 41.09C72.0998 43.092 70.1398 45.01 67.7598 46.34C66.2478 47.18 64.5678 47.656 62.9998 47.922ZM63.4338 41.174L62.4258 42.714C63.3638 43.218 64.8198 44.156 65.6178 44.716L66.6398 43.148C65.9258 42.644 64.3858 41.678 63.4338 41.174ZM79.6738 38.36L78.3578 39.76C79.3798 40.474 81.1298 42 81.8578 42.784L83.2858 41.314C82.4738 40.474 80.6538 39.018 79.6738 38.36ZM77.9238 47.684L79.0998 49.532C81.0738 49.196 82.8798 48.412 84.2938 47.558C86.5478 46.2 88.4098 44.268 89.4738 42.378L88.3818 40.404C87.4998 42.294 85.6658 44.436 83.2858 45.85C81.9278 46.662 80.1078 47.376 77.9238 47.684ZM97.7456 42.826H105.236V44.618H97.7456V42.826Z" fill="#333333"/>
</svg>
